<svg xmlns="http://www.w3.org/2000/svg" width="1200" height="800" viewBox="0 0 1200 800" role="img" aria-label="Placeholder hero illustration">
  <defs>
    <linearGradient id="bg" x1="0" y1="0" x2="1" y2="1">
      <stop offset="0" stop-color="#1fb7ea" stop-opacity="0.22"/>
      <stop offset="0.55" stop-color="#1e3a8a" stop-opacity="0.22"/>
      <stop offset="1" stop-color="#020617" stop-opacity="0.35"/>
    </linearGradient>
    <linearGradient id="accent" x1="0" y1="0" x2="1" y2="0">
      <stop offset="0" stop-color="#1fb7ea"/>
      <stop offset="1" stop-color="#1e3a8a"/>
    </linearGradient>
    <filter id="soft" x="-20%" y="-20%" width="140%" height="140%">
      <feGaussianBlur in="SourceGraphic" stdDeviation="10" result="blur"/>
      <feColorMatrix in="blur" type="matrix" values="
        1 0 0 0 0
        0 1 0 0 0
        0 0 1 0 0
        0 0 0 0.55 0"/>
      <feMerge>
        <feMergeNode/>
        <feMergeNode in="SourceGraphic"/>
      </feMerge>
    </filter>
  </defs>

  <rect width="1200" height="800" rx="44" fill="url(#bg)"/>

  <!-- Accent orbs -->
  <circle cx="260" cy="220" r="180" fill="#1fb7ea" fill-opacity="0.18" filter="url(#soft)"/>
  <circle cx="980" cy="260" r="210" fill="#1e3a8a" fill-opacity="0.22" filter="url(#soft)"/>
  <circle cx="760" cy="650" r="240" fill="#22c55e" fill-opacity="0.12" filter="url(#soft)"/>

  <!-- "Dashboard" cards -->
  <g transform="translate(160 150)">
    <rect x="0" y="0" width="520" height="310" rx="26" fill="#ffffff" fill-opacity="0.12" stroke="#ffffff" stroke-opacity="0.22"/>
    <rect x="28" y="28" width="220" height="14" rx="7" fill="#ffffff" fill-opacity="0.55"/>
    <rect x="28" y="64" width="340" height="10" rx="5" fill="#ffffff" fill-opacity="0.28"/>
    <rect x="28" y="88" width="300" height="10" rx="5" fill="#ffffff" fill-opacity="0.22"/>

    <rect x="28" y="140" width="464" height="12" rx="6" fill="url(#accent)" fill-opacity="0.9"/>
    <rect x="28" y="168" width="390" height="12" rx="6" fill="url(#accent)" fill-opacity="0.62"/>
    <rect x="28" y="196" width="320" height="12" rx="6" fill="url(#accent)" fill-opacity="0.45"/>

    <g transform="translate(28 238)">
      <rect x="0" y="0" width="150" height="44" rx="16" fill="#1fb7ea" fill-opacity="0.25" stroke="#1fb7ea" stroke-opacity="0.35"/>
      <rect x="170" y="0" width="150" height="44" rx="16" fill="#1e3a8a" fill-opacity="0.25" stroke="#1e3a8a" stroke-opacity="0.35"/>
      <rect x="340" y="0" width="152" height="44" rx="16" fill="#22c55e" fill-opacity="0.18" stroke="#22c55e" stroke-opacity="0.28"/>
    </g>
  </g>

  <g transform="translate(720 360)">
    <rect x="0" y="0" width="320" height="240" rx="26" fill="#ffffff" fill-opacity="0.10" stroke="#ffffff" stroke-opacity="0.22"/>
    <rect x="24" y="26" width="200" height="12" rx="6" fill="#ffffff" fill-opacity="0.55"/>
    <rect x="24" y="56" width="250" height="9" rx="4.5" fill="#ffffff" fill-opacity="0.24"/>
    <rect x="24" y="76" width="220" height="9" rx="4.5" fill="#ffffff" fill-opacity="0.20"/>

    <circle cx="70" cy="148" r="28" fill="#1fb7ea" fill-opacity="0.28"/>
    <circle cx="150" cy="148" r="28" fill="#1e3a8a" fill-opacity="0.28"/>
    <circle cx="230" cy="148" r="28" fill="#22c55e" fill-opacity="0.20"/>

    <rect x="24" y="196" width="272" height="16" rx="8" fill="url(#accent)" fill-opacity="0.7"/>
  </g>

  <!-- Replace note -->
  <g transform="translate(64 720)">
    <rect x="0" y="0" width="690" height="44" rx="14" fill="#020617" fill-opacity="0.32" stroke="#ffffff" stroke-opacity="0.16"/>
    <text x="20" y="28" font-family="system-ui,Segoe UI,Arial" font-size="16" fill="#ffffff" fill-opacity="0.85">
      REPLACE: Swap this placeholder with your real hero photo/graphic.
    </text>
  </g>
</svg>

